<svg width="128" height="128" viewBox="0 0 128 128" fill="none" xmlns="http://www.w3.org/2000/svg">
<g clip-path="url(#clip0_558_148)">
<path d="M64 128C99.3462 128 128 99.3462 128 64C128 28.6538 99.3462 0 64 0C28.6538 0 0 28.6538 0 64C0 99.3462 28.6538 128 64 128Z" fill="#28C2D9"/>
<path d="M64 24C41.9 24 24 41.9 24 64C24 86.1 41.9 104 64 104C86.1 104 104 86.1 104 64C104 41.9 86.1 24 64 24ZM66 48C70.7 47.9 75.3 47.3 79.6 46.3C81 51 81.8 56.3 82 62H66V48ZM66 44V28.2C71 29.4 75.4 34.7 78.3 42.4C74.4 43.3 70.3 43.9 66 44ZM62 28.2V44C57.7 43.9 53.6 43.4 49.7 42.5C52.6 34.8 57 29.4 62 28.2ZM62 48V62H46C46.2 56.3 47 51 48.4 46.3C52.7 47.3 57.3 47.8 62 48ZM42 62H28C28.4 54.3 31.2 47.3 35.7 41.7C38.3 43.1 41.2 44.3 44.4 45.3C43.1 50.2 42.2 55.9 42 62ZM42 66C42.2 72.1 43 77.7 44.5 82.8C41.3 83.8 38.4 85 35.8 86.4C31.3 80.7 28.5 73.7 28.1 66.1H42V66ZM46 66H62V80C57.3 80.1 52.7 80.7 48.4 81.7C47 77 46.2 71.7 46 66ZM62 84V99.7C57 98.5 52.6 93.2 49.7 85.5C53.6 84.7 57.7 84.1 62 84ZM66 99.8V84C70.3 84.1 74.4 84.6 78.3 85.5C75.4 93.2 71 98.6 66 99.8ZM66 80V66H82C81.8 71.7 81 77 79.6 81.7C75.3 80.7 70.7 80.2 66 80ZM86 66H100C99.6 73.7 96.8 80.7 92.3 86.3C89.7 84.9 86.8 83.7 83.6 82.7C84.9 77.7 85.8 72.1 86 66ZM86 62C85.8 55.9 85 50.3 83.5 45.2C86.7 44.2 89.6 43 92.2 41.6C96.7 47.3 99.5 54.3 99.9 61.9L86 62ZM89.5 38.6C87.3 39.7 84.9 40.7 82.3 41.5C80.6 36.9 78.4 33 75.7 30C80.9 31.8 85.6 34.8 89.5 38.6ZM52.3 30C49.7 32.9 47.5 36.8 45.7 41.5C43.1 40.7 40.7 39.8 38.5 38.7C42.4 34.7 47.1 31.8 52.3 30ZM38.5 89.4C40.7 88.3 43.1 87.3 45.7 86.5C47.4 91.1 49.6 95 52.3 98C47.1 96.2 42.4 93.2 38.5 89.4ZM75.7 98C78.3 95.1 80.6 91.1 82.3 86.5C84.9 87.3 87.3 88.2 89.5 89.4C85.6 93.2 80.9 96.2 75.7 98Z" fill="white"/>
</g>
<defs>
<clipPath id="clip0_558_148">
<rect width="128" height="128" fill="white"/>
</clipPath>
</defs>
</svg>
