<svg width="42" height="32" viewBox="0 0 42 32" fill="none" xmlns="http://www.w3.org/2000/svg">
<path d="M0 5.33333C0 3.91885 0.553123 2.56229 1.53769 1.5621C2.52226 0.561903 3.85761 0 5.25 0H36.75C38.1424 0 39.4777 0.561903 40.4623 1.5621C41.4469 2.56229 42 3.91885 42 5.33333V26.6667C42 28.0812 41.4469 29.4377 40.4623 30.4379C39.4777 31.4381 38.1424 32 36.75 32H5.25C3.85761 32 2.52226 31.4381 1.53769 30.4379C0.553123 29.4377 0 28.0812 0 26.6667V5.33333ZM5.25 2.66667C4.55381 2.66667 3.88613 2.94762 3.39384 3.44772C2.90156 3.94781 2.625 4.62609 2.625 5.33333V5.912L21 17.112L39.375 5.912V5.33333C39.375 4.62609 39.0984 3.94781 38.6062 3.44772C38.1139 2.94762 37.4462 2.66667 36.75 2.66667H5.25ZM39.375 9.02133L27.0165 16.5547L39.375 24.28V9.02133ZM39.2857 27.3573L24.4808 18.1013L21 20.2213L17.5192 18.1013L2.71425 27.3547C2.86342 27.9221 3.19283 28.4237 3.65135 28.7815C4.10987 29.1393 4.67183 29.3332 5.25 29.3333H36.75C37.3278 29.3334 37.8895 29.1398 38.348 28.7825C38.8065 28.4253 39.1361 27.9243 39.2857 27.3573ZM2.625 24.28L14.9835 16.5547L2.625 9.02133V24.28Z" fill="#6272A4"/>
</svg>
