<svg width="128" height="128" viewBox="0 0 128 128" fill="none" xmlns="http://www.w3.org/2000/svg">
<g clip-path="url(#clip0_558_152)">
<path d="M64 128C99.3462 128 128 99.3462 128 64C128 28.6538 99.3462 0 64 0C28.6538 0 0 28.6538 0 64C0 99.3462 28.6538 128 64 128Z" fill="#00ECFC"/>
<path d="M63.9998 72.4L102.2 39.7C101.6 39.3 100.8 39 99.9998 39H27.9998C27.1998 39 26.3998 39.3 25.7998 39.7L63.9998 72.4Z" fill="white"/>
<path d="M66.6 75.4C65.1 76.7 62.9 76.7 61.4 75.4L24 43.5V85C24 87.2 25.8 89 28 89H100C102.2 89 104 87.2 104 85V43.4L66.6 75.4Z" fill="white"/>
</g>
<defs>
<clipPath id="clip0_558_152">
<rect width="128" height="128" fill="white"/>
</clipPath>
</defs>
</svg>
