<svg width="36" height="36" viewBox="0 0 36 36" fill="none" xmlns="http://www.w3.org/2000/svg">
<path d="M19.6967 0.76419C19.2466 0.27488 18.6363 0 18 0C17.3637 0 16.7534 0.27488 16.3033 0.76419L0.351886 18.1106C0.240325 18.232 0.151829 18.376 0.0914523 18.5346C0.0310755 18.6931 0 18.863 0 19.0346C0 19.2062 0.0310755 19.3761 0.0914523 19.5347C0.151829 19.6932 0.240325 19.8372 0.351886 19.9586C0.577195 20.2036 0.88278 20.3413 1.20141 20.3413C1.35919 20.3413 1.51541 20.3075 1.66118 20.2418C1.80694 20.1762 1.93938 20.0799 2.05094 19.9586L3.60121 18.2699V32.0849C3.60121 33.1233 3.98047 34.1191 4.65554 34.8533C5.33061 35.5875 6.24621 36 7.20091 36H28.7991C29.7538 36 30.6694 35.5875 31.3445 34.8533C32.0195 34.1191 32.3988 33.1233 32.3988 32.0849V18.2699L33.9491 19.9586C34.1744 20.2036 34.4799 20.3413 34.7986 20.3413C35.1172 20.3413 35.4228 20.2036 35.6481 19.9586C35.8734 19.7135 36 19.3812 36 19.0346C36 18.6881 35.8734 18.3557 35.6481 18.1106L29.999 11.9692V3.37425C29.999 3.02813 29.8726 2.6962 29.6475 2.45145C29.4225 2.20671 29.1173 2.06922 28.7991 2.06922H26.3993C26.0811 2.06922 25.7759 2.20671 25.5508 2.45145C25.3258 2.6962 25.1994 3.02813 25.1994 3.37425V6.74906L19.6967 0.76419ZM29.999 15.6598V32.0849C29.999 32.431 29.8726 32.763 29.6475 33.0077C29.4225 33.2524 29.1173 33.3899 28.7991 33.3899H7.20091C6.88268 33.3899 6.57748 33.2524 6.35245 33.0077C6.12743 32.763 6.00101 32.431 6.00101 32.0849V15.6598L18 2.6095L29.999 15.6598Z" fill="#6272A4"/>
</svg>
