<svg width="898" height="898" viewBox="0 0 898 898" fill="none" xmlns="http://www.w3.org/2000/svg">
<path d="M449 0.868042C201.481 0.868042 0.823242 201.522 0.823242 449.045C0.823242 696.564 201.481 897.222 449 897.222C696.519 897.222 897.177 696.564 897.177 449.045C897.177 201.523 696.519 0.868042 449 0.868042ZM664.252 693.969C427.294 721.407 255.186 501.906 197.817 372.204C149.356 262.642 221.923 197.572 245.625 180.005C249.907 176.836 255.088 175.153 260.415 175.153H296.146C301.018 175.153 305.784 176.58 309.854 179.258C313.924 181.937 317.121 185.748 319.048 190.223L369.497 307.263C371.157 311.113 371.819 315.32 371.422 319.494C371.026 323.667 369.584 327.674 367.229 331.143L335.362 378.11C330.299 385.569 329.699 395.16 333.664 403.257C381.578 501.039 487.812 551.809 528.364 568.199C537.914 572.063 548.855 569.603 555.885 562.068L602.026 512.634C605.615 508.79 610.326 506.178 615.487 505.171C620.648 504.164 625.995 504.814 630.765 507.027L741.376 558.382C749.681 562.238 755.28 570.335 755.782 579.473C760.744 669.286 664.252 693.969 664.252 693.969Z" fill="#00ECFC"/>
</svg>
