<svg width="36" height="36" viewBox="0 0 36 36" fill="none" xmlns="http://www.w3.org/2000/svg">
<path d="M1.98279 4.15385C1.98279 3.05218 2.34437 1.99563 2.98798 1.21663C3.6316 0.437636 4.50453 0 5.41474 0H11.7387C13.9306 0 15.7655 1.55077 17.0262 3.27877C17.9642 4.56369 19.0968 5.53846 20.2865 5.53846H30.5824C31.4926 5.53846 32.3655 5.9761 33.0092 6.75509C33.6528 7.53409 34.0144 8.59064 34.0144 9.69231V11.4646C35.3185 12.1985 36.165 13.8905 35.9729 15.7458L34.5086 29.9354C34.3356 31.6109 33.6626 33.1521 32.6163 34.269C31.5701 35.3859 30.2226 36.0015 28.8275 36H7.16732C5.77303 36.0002 4.42668 35.384 3.38137 34.2672C2.33606 33.1504 1.66377 31.6099 1.49087 29.9354L0.0265729 15.7458C-0.0636348 14.8735 0.0771585 13.989 0.428689 13.2197C0.780219 12.4503 1.32436 11.8358 1.98279 11.4646V4.15385ZM4.27076 11.0769H31.7264V9.69231C31.7264 9.32508 31.6059 8.9729 31.3913 8.71324C31.1768 8.45357 30.8858 8.30769 30.5824 8.30769H20.2865C18.0809 8.30769 16.3741 6.56585 15.3125 5.112C14.2783 3.69415 13.0108 2.76923 11.7387 2.76923H5.41474C5.11134 2.76923 4.82036 2.91511 4.60582 3.17478C4.39128 3.43444 4.27076 3.78662 4.27076 4.15385V11.0769ZM3.43107 13.8462C3.26889 13.8462 3.10858 13.888 2.96076 13.9688C2.81294 14.0495 2.681 14.1674 2.57368 14.3146C2.46636 14.4617 2.38613 14.6348 2.3383 14.8224C2.29046 15.01 2.27613 15.2077 2.29624 15.4025L3.76054 29.592C3.86429 30.5969 4.2678 31.5213 4.89518 32.1914C5.52256 32.8615 6.33059 33.2312 7.16732 33.2308H28.8298C29.6665 33.2312 30.4746 32.8615 31.102 32.1914C31.7293 31.5213 32.1328 30.5969 32.2366 29.592L33.7009 15.4025C33.721 15.2077 33.7067 15.01 33.6588 14.8224C33.611 14.6348 33.5308 14.4617 33.4235 14.3146C33.3161 14.1674 33.1842 14.0495 33.0364 13.9688C32.8886 13.888 32.7282 13.8462 32.5661 13.8462H3.43107Z" fill="#6272A4"/>
</svg>
