<svg width="36" height="36" viewBox="0 0 36 36" fill="none" xmlns="http://www.w3.org/2000/svg">
<path d="M17.9985 10.695C17.0394 10.695 16.0897 10.8839 15.2036 11.251C14.3175 11.618 13.5123 12.156 12.8342 12.8342C12.156 13.5123 11.618 14.3175 11.251 15.2036C10.8839 16.0897 10.695 17.0394 10.695 17.9985C10.695 18.9576 10.8839 19.9073 11.251 20.7934C11.618 21.6795 12.156 22.4847 12.8342 23.1629C13.5123 23.8411 14.3175 24.379 15.2036 24.7461C16.0897 25.1131 17.0394 25.302 17.9985 25.302C19.9355 25.302 21.7932 24.5325 23.1629 23.1629C24.5325 21.7932 25.302 19.9355 25.302 17.9985C25.302 16.0615 24.5325 14.2038 23.1629 12.8342C21.7932 11.4645 19.9355 10.695 17.9985 10.695ZM12.945 17.9985C12.945 16.6582 13.4774 15.3729 14.4251 14.4251C15.3729 13.4774 16.6582 12.945 17.9985 12.945C19.3388 12.945 20.6242 13.4774 21.5719 14.4251C22.5196 15.3729 23.052 16.6582 23.052 17.9985C23.052 19.3388 22.5196 20.6242 21.5719 21.5719C20.6242 22.5196 19.3388 23.052 17.9985 23.052C16.6582 23.052 15.3729 22.5196 14.4251 21.5719C13.4774 20.6242 12.945 19.3388 12.945 17.9985Z" fill="#6272A4"/>
<path d="M22.0399 3.02062C20.8541 -1.00688 15.1436 -1.00688 13.9579 3.02062L13.7464 3.73837C13.6636 4.01952 13.5189 4.27857 13.323 4.49653C13.127 4.7145 12.8848 4.88585 12.614 4.99804C12.3433 5.11023 12.0508 5.16041 11.7582 5.14489C11.4655 5.12937 11.18 5.04856 10.9226 4.90837L10.2656 4.54838C6.57562 2.54138 2.54138 6.57787 4.55062 10.2656L4.90837 10.9226C5.04856 11.18 5.12937 11.4655 5.14489 11.7582C5.16041 12.0508 5.11023 12.3433 4.99804 12.614C4.88585 12.8848 4.7145 13.127 4.49653 13.323C4.27857 13.5189 4.01952 13.6636 3.73837 13.7464L3.02062 13.9579C-1.00688 15.1436 -1.00688 20.8541 3.02062 22.0399L3.73837 22.2514C4.01952 22.3342 4.27857 22.4789 4.49653 22.6748C4.7145 22.8707 4.88585 23.1129 4.99804 23.3837C5.11023 23.6545 5.16041 23.9469 5.14489 24.2396C5.12937 24.5323 5.04856 24.8177 4.90837 25.0751L4.54838 25.7321C2.54138 29.4221 6.57562 33.4586 10.2656 31.4471L10.9226 31.0894C11.18 30.9492 11.4655 30.8684 11.7582 30.8529C12.0508 30.8373 12.3433 30.8875 12.614 30.9997C12.8848 31.1119 13.127 31.2833 13.323 31.5012C13.5189 31.7192 13.6636 31.9782 13.7464 32.2594L13.9579 32.9771C15.1436 37.0046 20.8541 37.0046 22.0399 32.9771L22.2514 32.2594C22.3342 31.9782 22.4789 31.7192 22.6748 31.5012C22.8707 31.2833 23.1129 31.1119 23.3837 30.9997C23.6545 30.8875 23.9469 30.8373 24.2396 30.8529C24.5323 30.8684 24.8177 30.9492 25.0751 31.0894L25.7321 31.4494C29.4221 33.4586 33.4586 29.4199 31.4471 25.7321L31.0894 25.0751C30.9492 24.8177 30.8684 24.5323 30.8529 24.2396C30.8373 23.9469 30.8875 23.6545 30.9997 23.3837C31.1119 23.1129 31.2833 22.8707 31.5012 22.6748C31.7192 22.4789 31.9782 22.3342 32.2594 22.2514L32.9771 22.0399C37.0046 20.8541 37.0046 15.1436 32.9771 13.9579L32.2594 13.7464C31.9782 13.6636 31.7192 13.5189 31.5012 13.323C31.2833 13.127 31.1119 12.8848 30.9997 12.614C30.8875 12.3433 30.8373 12.0508 30.8529 11.7582C30.8684 11.4655 30.9492 11.18 31.0894 10.9226L31.4494 10.2656C33.4586 6.57562 29.4199 2.54138 25.7321 4.55062L25.0751 4.90837C24.8177 5.04856 24.5323 5.12937 24.2396 5.14489C23.9469 5.16041 23.6545 5.11023 23.3837 4.99804C23.1129 4.88585 22.8707 4.7145 22.6748 4.49653C22.4789 4.27857 22.3342 4.01952 22.2514 3.73837L22.0399 3.02062ZM16.1156 3.65737C16.6691 1.77863 19.3286 1.77863 19.8821 3.65737L20.0936 4.37512C20.2714 4.97832 20.582 5.53407 21.0025 6.00165C21.423 6.46922 21.9428 6.83677 22.5238 7.07733C23.1048 7.31789 23.7323 7.42538 24.3603 7.3919C24.9882 7.35843 25.6007 7.18484 26.1529 6.88387L26.8076 6.52387C28.5266 5.59012 30.4076 7.46887 29.4716 9.19012L29.1139 9.84712C28.8134 10.3993 28.6402 11.0118 28.6071 11.6396C28.574 12.2674 28.6818 12.8947 28.9225 13.4754C29.1633 14.0562 29.5309 14.5757 29.9985 14.996C30.4661 15.4162 31.0218 15.7265 31.6249 15.9041L32.3404 16.1156C34.2191 16.6691 34.2191 19.3286 32.3404 19.8821L31.6226 20.0936C31.0194 20.2714 30.4637 20.582 29.9961 21.0025C29.5285 21.423 29.161 21.9428 28.9204 22.5238C28.6799 23.1048 28.5724 23.7323 28.6059 24.3603C28.6393 24.9882 28.8129 25.6007 29.1139 26.1529L29.4739 26.8076C30.4076 28.5266 28.5289 30.4076 26.8076 29.4716L26.1529 29.1139C25.6006 28.8129 24.9879 28.6394 24.3598 28.6061C23.7318 28.5728 23.1042 28.6805 22.5231 28.9212C21.9421 29.162 21.4223 29.5298 21.0019 29.9977C20.5815 30.4655 20.2712 31.0215 20.0936 31.6249L19.8821 32.3404C19.3286 34.2191 16.6691 34.2191 16.1156 32.3404L15.9041 31.6226C15.7263 31.0197 15.4158 30.4643 14.9954 29.997C14.5751 29.5296 14.0555 29.1622 13.4748 28.9217C12.894 28.6812 12.2669 28.5736 11.6392 28.6068C11.0115 28.6401 10.3992 28.8133 9.84712 29.1139L9.19012 29.4739C7.47112 30.4076 5.59012 28.5289 6.52612 26.8076L6.88387 26.1529C7.18527 25.6006 7.35919 24.9879 7.39288 24.3597C7.42658 23.7315 7.31919 23.1037 7.0786 22.5224C6.83801 21.9411 6.47031 21.421 6.0025 21.0003C5.53469 20.5797 4.97863 20.2691 4.37512 20.0914L3.65737 19.8799C1.77863 19.3264 1.77863 16.6669 3.65737 16.1134L4.37512 15.9019C4.97769 15.7239 5.53284 15.4135 5.99994 14.9933C6.46705 14.5731 6.83429 14.0538 7.0748 13.4733C7.3153 12.8929 7.42297 12.266 7.38994 11.6386C7.3569 11.0112 7.184 10.3991 6.88387 9.84712L6.52387 9.19012C5.59012 7.47112 7.46887 5.59012 9.19012 6.52612L9.84712 6.88387C10.3992 7.18442 11.0115 7.35767 11.6392 7.39092C12.2669 7.42417 12.894 7.31659 13.4748 7.07606C14.0555 6.83553 14.5751 6.46814 14.9954 6.0008C15.4158 5.53346 15.7263 4.978 15.9041 4.37512L16.1156 3.65737Z" fill="#6272A4"/>
</svg>
